{
    "asset" : {
        "generator" : "Khronos glTF Blender I/O v1.5.17",
        "version" : "2.0"
    },
    "scene" : 0,
    "scenes" : [
        {
            "name" : "Scene",
            "nodes" : [
                1
            ]
        }
    ],
    "nodes" : [
        {
            "mesh" : 0,
            "name" : "clown_fish.1"
        },
        {
            "children" : [
                0
            ],
            "name" : "RootNode.0",
            "scale" : [
                0.009999999776482582,
                0.009999999776482582,
                0.009999999776482582
            ]
        }
    ],
    "materials" : [
        {
            "doubleSided" : true,
            "name" : "Material_0.001",
            "pbrMetallicRoughness" : {}
        }
    ],
    "meshes" : [
        {
            "name" : "Mesh_0.001",
            "primitives" : [
                {
                    "attributes" : {
                        "POSITION" : 0,
                        "NORMAL" : 1,
                        "TEXCOORD_0" : 2
                    },
                    "indices" : 3,
                    "material" : 0
                }
            ]
        }
    ],
    "accessors" : [
        {
            "bufferView" : 0,
            "componentType" : 5126,
            "count" : 16413,
            "max" : [
                0.7714040279388428,
                2.4609813690185547,
                2.267273426055908
            ],
            "min" : [
                -0.7714040279388428,
                0,
                -2.2552199363708496
            ],
            "type" : "VEC3"
        },
        {
            "bufferView" : 1,
            "componentType" : 5126,
            "count" : 16413,
            "type" : "VEC3"
        },
        {
            "bufferView" : 2,
            "componentType" : 5126,
            "count" : 16413,
            "type" : "VEC2"
        },
        {
            "bufferView" : 3,
            "componentType" : 5123,
            "count" : 94644,
            "type" : "SCALAR"
        }
    ],
    "bufferViews" : [
        {
            "buffer" : 0,
            "byteLength" : 196956,
            "byteOffset" : 0
        },
        {
            "buffer" : 0,
            "byteLength" : 196956,
            "byteOffset" : 196956
        },
        {
            "buffer" : 0,
            "byteLength" : 131304,
            "byteOffset" : 393912
        },
        {
            "buffer" : 0,
            "byteLength" : 189288,
            "byteOffset" : 525216
        }
    ],
    "buffers" : [
        {
            "byteLength" : 714504,
            "uri" : "data:application/octet-stream;base64,"
        }
    ]
}
